<svg width="46" height="46" viewBox="0 0 46 46" fill="none" xmlns="http://www.w3.org/2000/svg">
<rect width="46" height="46" transform="translate(-0.00390625)" fill="#363B47" fill-opacity="0.4"/>
<g clip-path="url(#clip0_6761_9820)">
<path d="M31.9961 17.7314C31.3267 18.025 30.6135 18.2196 29.8698 18.3141C30.6348 17.8574 31.2187 17.1396 31.4932 16.2745C30.78 16.6997 29.9925 17.0001 29.1532 17.1678C28.476 16.4466 27.5107 16 26.4577 16C24.4147 16 22.77 17.6583 22.77 19.6911C22.77 19.9836 22.7947 20.2649 22.8555 20.5326C19.7876 20.383 17.073 18.9126 15.2493 16.6728C14.931 17.2251 14.7442 17.8574 14.7442 18.538C14.7442 19.816 15.4023 20.9489 16.3833 21.6047C15.7905 21.5935 15.2088 21.4214 14.7161 21.1502C14.7161 21.1615 14.7161 21.1761 14.7161 21.1907C14.7161 22.984 15.9952 24.4735 17.6726 24.8166C17.3722 24.8988 17.0448 24.9381 16.7051 24.9381C16.4688 24.9381 16.2303 24.9246 16.0065 24.8751C16.4846 26.3365 17.8413 27.4109 19.4546 27.4457C18.1991 28.4279 16.605 29.0196 14.8792 29.0196C14.5766 29.0196 14.2863 29.0061 13.9961 28.969C15.6307 30.0231 17.568 30.625 19.6571 30.625C26.4476 30.625 30.1601 25 30.1601 20.1242C30.1601 19.9611 30.1545 19.8036 30.1466 19.6473C30.879 19.1275 31.4943 18.4784 31.9961 17.7314Z" fill="white"/>
</g>
<defs>
<clipPath id="clip0_6761_9820">
<rect width="18" height="18" fill="white" transform="translate(13.9961 14)"/>
</clipPath>
</defs>
</svg>
