<svg width="86" height="86" viewBox="0 0 86 86" fill="none" xmlns="http://www.w3.org/2000/svg">
<g filter="url(#filter0_d_6981_24000)">
<rect width="46" height="46.0002" transform="translate(20 14)" fill="#00ADB5"/>
<path d="M51.996 46.0002V45.9994H52.0005V39.3979C52.0005 36.1684 51.3052 33.6807 47.5297 33.6807C45.7147 33.6807 44.4967 34.6767 43.9994 35.6209H43.9469V33.9822H40.3672V45.9994H44.0947V40.0489C44.0947 38.4822 44.3917 36.9672 46.332 36.9672C48.2437 36.9672 48.2722 38.7552 48.2722 40.1494V46.0002H51.996Z" fill="white"/>
<path d="M34.2969 33.9829H38.0289V46.0002H34.2969V33.9829Z" fill="white"/>
<path d="M36.1615 28C34.9683 28 34 28.9683 34 30.1615C34 31.3548 34.9683 32.3433 36.1615 32.3433C37.3547 32.3433 38.323 31.3548 38.323 30.1615C38.3222 28.9683 37.354 28 36.1615 28V28Z" fill="white"/>
</g>
<defs>
<filter id="filter0_d_6981_24000" x="0" y="0" width="86" height="86.0002" filterUnits="userSpaceOnUse" color-interpolation-filters="sRGB">
<feFlood flood-opacity="0" result="BackgroundImageFix"/>
<feColorMatrix in="SourceAlpha" type="matrix" values="0 0 0 0 0 0 0 0 0 0 0 0 0 0 0 0 0 0 127 0" result="hardAlpha"/>
<feOffset dy="6"/>
<feGaussianBlur stdDeviation="10"/>
<feComposite in2="hardAlpha" operator="out"/>
<feColorMatrix type="matrix" values="0 0 0 0 0 0 0 0 0 0.678431 0 0 0 0 0.709804 0 0 0 0.5 0"/>
<feBlend mode="normal" in2="BackgroundImageFix" result="effect1_dropShadow_6981_24000"/>
<feBlend mode="normal" in="SourceGraphic" in2="effect1_dropShadow_6981_24000" result="shape"/>
</filter>
</defs>
</svg>
