<svg width="46" height="46" viewBox="0 0 46 46" fill="none" xmlns="http://www.w3.org/2000/svg">
<rect width="46" height="46" transform="translate(-0.00390625)" fill="#363B47" fill-opacity="0.4"/>
<path fill-rule="evenodd" clip-rule="evenodd" d="M30.0388 17.3855C30.8098 17.5931 31.4177 18.2009 31.6252 18.972C32.0109 20.3805 31.996 23.3163 31.996 23.3163C31.996 23.3163 31.996 26.2371 31.6254 27.6457C31.4177 28.4167 30.8099 29.0246 30.0388 29.2321C28.6302 29.6029 22.9961 29.6029 22.9961 29.6029C22.9961 29.6029 17.3766 29.6029 15.9533 29.2174C15.1822 29.0098 14.5744 28.4018 14.3667 27.6309C13.9961 26.2371 13.9961 23.3015 13.9961 23.3015C13.9961 23.3015 13.9961 20.3805 14.3667 18.972C14.5742 18.2011 15.197 17.5783 15.9532 17.3708C17.3617 17 22.9959 17 22.9959 17C22.9959 17 28.6302 17 30.0388 17.3855ZM25.8874 23.3015L21.2021 26.0001V20.603L25.8874 23.3015Z" fill="white"/>
</svg>
