<svg width="64" height="64" viewBox="0 0 64 64" fill="none" xmlns="http://www.w3.org/2000/svg">
<rect width="64" height="64" fill="white"/>
<path opacity="0.2" d="M31 23.0005L23.5404 25.7979C23.3761 25.8595 23.2309 25.9632 23.1194 26.0987C23.0079 26.2342 22.934 26.3967 22.9051 26.5698L20 44.0005L37.4307 41.0953C37.6038 41.0665 37.7663 40.9926 37.9018 40.8811C38.0373 40.7696 38.141 40.6244 38.2026 40.4601L41 33.0005L31 23.0005ZM30.4993 36.0001C30.0048 36.0001 29.5215 35.8534 29.1103 35.5787C28.6992 35.304 28.3788 34.9136 28.1896 34.4568C28.0004 34 27.9508 33.4973 28.0473 33.0123C28.1438 32.5274 28.3819 32.0819 28.7315 31.7323C29.0811 31.3827 29.5266 31.1446 30.0115 31.0481C30.4965 30.9516 30.9992 31.0011 31.456 31.1904C31.9128 31.3796 32.3032 31.7 32.5779 32.1111C32.8526 32.5223 32.9993 33.0056 32.9993 33.5001C32.9993 33.8284 32.9346 34.1535 32.809 34.4568C32.6833 34.7601 32.4992 35.0357 32.267 35.2678C32.0349 35.5 31.7593 35.6841 31.456 35.8098C31.1527 35.9354 30.8276 36.0001 30.4993 36.0001Z" fill="#FF6636"/>
<path d="M30.5 36C31.8807 36 33 34.8807 33 33.5C33 32.1193 31.8807 31 30.5 31C29.1193 31 28 32.1193 28 33.5C28 34.8807 29.1193 36 30.5 36Z" stroke="#FF6636" stroke-width="2" stroke-linecap="round" stroke-linejoin="round"/>
<path d="M20 44.0005L28.7315 35.2678" stroke="#FF6636" stroke-width="2" stroke-linecap="round" stroke-linejoin="round"/>
<path d="M20 44.0005L37.4307 41.0954C37.6038 41.0665 37.7663 40.9926 37.9018 40.8811C38.0373 40.7696 38.141 40.6244 38.2026 40.4601L41 33.0005L31 23.0005L23.5404 25.7978C23.3761 25.8595 23.2309 25.9632 23.1194 26.0987C23.0079 26.2342 22.934 26.3967 22.9051 26.5698L20 44.0005Z" stroke="#FF6636" stroke-width="2" stroke-linecap="round" stroke-linejoin="round"/>
<path d="M41 33.0003L44.2929 29.7074C44.3858 29.6146 44.4594 29.5043 44.5097 29.383C44.5599 29.2617 44.5858 29.1317 44.5858 29.0003C44.5858 28.869 44.5599 28.739 44.5097 28.6177C44.4594 28.4963 44.3858 28.3861 44.2929 28.2932L35.7071 19.7074C35.5196 19.5199 35.2652 19.4146 35 19.4146C34.7348 19.4146 34.4804 19.5199 34.2929 19.7074L31 23.0003" stroke="#FF6636" stroke-width="2" stroke-linecap="round" stroke-linejoin="round"/>
</svg>
