<svg width="64" height="64" viewBox="0 0 64 64" fill="none" xmlns="http://www.w3.org/2000/svg">
<rect width="64" height="64" fill="white"/>
<path opacity="0.2" d="M20.1385 25.3271C20.0478 25.481 20 25.6563 20 25.8349V38.1652C20 38.3426 20.0472 38.5169 20.1368 38.67C20.2264 38.8232 20.3551 38.9498 20.5097 39.0368L31.5097 45.2243C31.6594 45.3085 31.8283 45.3527 32 45.3527L32.0013 45.3527L32.1186 32L20.1385 25.3272L20.1385 25.3271Z" fill="#FD8E1F"/>
<path d="M44 38.165V25.8347C44 25.6573 43.9528 25.483 43.8632 25.3299C43.7736 25.1767 43.6449 25.0501 43.4903 24.9631L32.4903 18.7756C32.3406 18.6914 32.1717 18.6472 32 18.6472C31.8283 18.6472 31.6594 18.6914 31.5097 18.7756L20.5097 24.9631C20.3551 25.0501 20.2264 25.1767 20.1368 25.3299C20.0472 25.483 20 25.6573 20 25.8347V38.165C20 38.3425 20.0472 38.5167 20.1368 38.6699C20.2264 38.823 20.3551 38.9496 20.5097 39.0366L31.5097 45.2241C31.6594 45.3083 31.8283 45.3525 32 45.3525C32.1717 45.3525 32.3406 45.3083 32.4903 45.2241L43.4903 39.0366C43.6449 38.9496 43.7736 38.823 43.8632 38.6699C43.9528 38.5167 44 38.3425 44 38.165Z" stroke="#FD8E1F" stroke-width="2" stroke-linecap="round" stroke-linejoin="round"/>
<path d="M38.1278 35.0639V28.5639L26 21.875" stroke="#FD8E1F" stroke-width="2" stroke-linecap="round" stroke-linejoin="round"/>
<path d="M43.8623 25.3284L32.1188 32L20.1387 25.3271" stroke="#FD8E1F" stroke-width="2" stroke-linecap="round" stroke-linejoin="round"/>
<path d="M32.1193 32L32.002 45.3527" stroke="#FD8E1F" stroke-width="2" stroke-linecap="round" stroke-linejoin="round"/>
</svg>
