<svg width="64" height="64" viewBox="0 0 64 64" fill="none" xmlns="http://www.w3.org/2000/svg">
<rect width="64" height="64" fill="white"/>
<path opacity="0.2" d="M21.28 21.3733C21.131 21.3298 20.9739 21.3216 20.8211 21.3494C20.6684 21.3772 20.5242 21.4401 20.4 21.5333C20.2758 21.6264 20.175 21.7472 20.1056 21.886C20.0361 22.0249 20 22.178 20 22.3333V39.6666C20 39.8218 20.0361 39.9749 20.1056 40.1138C20.175 40.2527 20.2758 40.3734 20.4 40.4666C20.5242 40.5597 20.6684 40.6227 20.8211 40.6505C20.9739 40.6782 21.131 40.6701 21.28 40.6266L33.0007 37.208V24.7918L21.28 21.3733Z" fill="#564FFD"/>
<path d="M20 22.3333V39.6666C20 39.8218 20.0361 39.9749 20.1056 40.1138C20.175 40.2527 20.2758 40.3734 20.4 40.4666C20.5242 40.5597 20.6684 40.6227 20.8211 40.6505C20.9739 40.6782 21.131 40.6701 21.28 40.6266L43.28 34.2099C43.4877 34.1493 43.6702 34.023 43.8 33.8499C43.9298 33.6768 44 33.4663 44 33.2499V28.7499C44 28.5335 43.9298 28.323 43.8 28.1499C43.6702 27.9768 43.4877 27.8505 43.28 27.7899L21.28 21.3733C21.131 21.3298 20.9739 21.3216 20.8211 21.3494C20.6684 21.3772 20.5242 21.4401 20.4 21.5333C20.2758 21.6264 20.175 21.7472 20.1056 21.886C20.0361 22.0249 20 22.178 20 22.3333V22.3333Z" stroke="#564FFD" stroke-width="2" stroke-linecap="round" stroke-linejoin="round"/>
<path d="M39 35.4582V40.0001C39 40.2653 38.8946 40.5197 38.7071 40.7072C38.5196 40.8948 38.2652 41.0001 38 41.0001H34C33.7348 41.0001 33.4804 40.8948 33.2929 40.7072C33.1054 40.5197 33 40.2653 33 40.0001V24.792" stroke="#564FFD" stroke-width="2" stroke-linecap="round" stroke-linejoin="round"/>
</svg>
