<svg width="86" height="86" viewBox="0 0 86 86" fill="none" xmlns="http://www.w3.org/2000/svg">
<g filter="url(#filter0_d_6761_9815)">
<rect width="46" height="46.0002" transform="translate(19.9961 14)" fill="#FF6636"/>
<path d="M51.9921 45.9992V45.9984H51.9966V39.3969C51.9966 36.1674 51.3013 33.6797 47.5258 33.6797C45.7108 33.6797 44.4928 34.6757 43.9955 35.6199H43.943V33.9812H40.3633V45.9984H44.0908V40.0479C44.0908 38.4812 44.3878 36.9662 46.328 36.9662C48.2398 36.9662 48.2683 38.7542 48.2683 40.1484V45.9992H51.9921Z" fill="white"/>
<path d="M34.293 33.9824H38.025V45.9997H34.293V33.9824Z" fill="white"/>
<path d="M36.1576 28C34.9643 28 33.9961 28.9683 33.9961 30.1615C33.9961 31.3548 34.9643 32.3433 36.1576 32.3433C37.3508 32.3433 38.3191 31.3548 38.3191 30.1615C38.3183 28.9683 37.3501 28 36.1576 28V28Z" fill="white"/>
</g>
<defs>
<filter id="filter0_d_6761_9815" x="-0.00390625" y="0" width="86" height="86" filterUnits="userSpaceOnUse" color-interpolation-filters="sRGB">
<feFlood flood-opacity="0" result="BackgroundImageFix"/>
<feColorMatrix in="SourceAlpha" type="matrix" values="0 0 0 0 0 0 0 0 0 0 0 0 0 0 0 0 0 0 127 0" result="hardAlpha"/>
<feOffset dy="6"/>
<feGaussianBlur stdDeviation="10"/>
<feComposite in2="hardAlpha" operator="out"/>
<feColorMatrix type="matrix" values="0 0 0 0 0.8 0 0 0 0 0.321569 0 0 0 0 0.168627 0 0 0 0.5 0"/>
<feBlend mode="normal" in2="BackgroundImageFix" result="effect1_dropShadow_6761_9815"/>
<feBlend mode="normal" in="SourceGraphic" in2="effect1_dropShadow_6761_9815" result="shape"/>
</filter>
</defs>
</svg>
